<?xml version="1.0" encoding="utf-8"?>
<!-- Generator: Adobe Illustrator 16.0.0, SVG Export Plug-In . SVG Version: 6.00 Build 0)  -->
<!DOCTYPE svg PUBLIC "-//W3C//DTD SVG 1.1//EN" "http://www.w3.org/Graphics/SVG/1.1/DTD/svg11.dtd">
<svg version="1.1" id="Layer_1" xmlns="http://www.w3.org/2000/svg" xmlns:xlink="http://www.w3.org/1999/xlink" x="0px" y="0px"
	 width="240px" height="240px" viewBox="0 0 240 240" enable-background="new 0 0 240 240" xml:space="preserve">
<circle opacity="0.2" fill="#FFFFFF" cx="120" cy="119.499" r="119.499"/>
<g>
	<defs>
		<path id="SVGID_1_" d="M239.435,119.672c0,65.689-53.256,118.944-118.941,118.944C54.8,238.616,1.55,185.361,1.55,119.672
			C1.55,53.979,54.8,0.729,120.493,0.729C186.179,0.729,239.435,53.979,239.435,119.672z"/>
	</defs>
	<clipPath id="SVGID_2_">
		<use xlink:href="#SVGID_1_"  overflow="visible"/>
	</clipPath>
	<g clip-path="url(#SVGID_2_)">
		<g>
			<defs>
				<path id="SVGID_3_" d="M53.282,96.247c0,21.106,17.106,38.221,38.216,38.221c0.938,0,1.868-0.049,2.789-0.113l1.93,16.804
					c-7.925,6.911-18.287,11.094-29.629,11.094c-24.914,0-45.108-20.198-45.108-45.108c0-23.269,17.618-42.417,40.24-44.844
					C56.444,78.854,53.282,87.179,53.282,96.247z"/>
			</defs>
			<clipPath id="SVGID_4_">
				<use xlink:href="#SVGID_3_"  overflow="visible"/>
			</clipPath>
			<path clip-path="url(#SVGID_4_)" fill="#F8513F" d="M53.282,96.247c0,21.106,17.106,38.221,38.216,38.221
				c0.938,0,1.868-0.049,2.789-0.113l1.93,16.804c-7.925,6.911-18.287,11.094-29.629,11.094c-24.914,0-45.108-20.198-45.108-45.108
				c0-23.269,17.618-42.417,40.24-44.844C56.444,78.854,53.282,87.179,53.282,96.247z"/>
			<path clip-path="url(#SVGID_4_)" fill="#FAD00A" d="M119.658,110.436c6.457-22.547-22.356-41.489-47.562-40.343
				c-25.198,1.146-44.759,21.07-43.693,44.501c1.068,23.421,20.81,41.483,46.014,40.339
				C99.614,153.789,113.36,132.423,119.658,110.436z"/>
			<path clip-path="url(#SVGID_4_)" fill="#8BE808" d="M119.079,108.456c3.711-21.478-18.485-39.458-41.301-39.458
				c-22.812,0-41.302,17.666-41.302,39.458c0,21.789,18.526,40.752,41.267,38.937C100.419,145.583,115.168,131.131,119.079,108.456z
				"/>
			<path clip-path="url(#SVGID_4_)" fill="#14A0FF" d="M122.178,102.322c0-20.539-17.157-37.194-38.325-37.194
				s-38.329,16.655-38.329,37.194c0,20.546,15.052,38.36,38.329,37.201C104.996,138.471,122.178,122.868,122.178,102.322z"/>
		</g>
		<path fill="#9AC6CB" d="M107.502,103.888c-25.817,0-46.741,25.651-46.741,57.296v166.471h25.074V195.752
			c0-14.667,9.696-26.556,21.667-26.556c11.961,0,21.662,11.889,21.662,26.556v131.902h25.071V161.184
			C154.235,129.539,133.308,103.888,107.502,103.888z"/>
		<path fill="#366469" d="M160.384,222.866c-18.269,12.393-31.356,10.024-31.356,10.024s0-28.148,0-39.769
			c0-1.304-0.468-3.617-1.095-5.611c-0.468-1.482,1.095-5.94,1.095-5.94l31.81-7.034
			C160.837,174.536,174.546,213.268,160.384,222.866z"/>
		<path fill="#366469" d="M102.763,232.891c-15.505,0-42.002-22.356-42.002-49.938c0-27.584,12.566-49.941,28.065-49.941"/>
		<path fill="#FFFFFF" d="M126.445,103.888c-25.811,0-46.737,25.651-46.737,57.296v166.471h25.072V195.752
			c0-14.667,9.702-26.556,21.665-26.556c11.965,0,21.663,11.889,21.663,26.556v131.902h25.08V161.184
			C173.188,129.539,152.257,103.888,126.445,103.888z"/>
		<path fill="#FFFFFF" d="M122.384,106.87c-4.677-1.927-9.676-2.982-14.882-2.982c-25.817,0-46.741,25.651-46.741,57.296v23.125
			c10.768,1.533,19.136,12.743,19.136,26.361v116.984h25.075V161.184L122.384,106.87z"/>
		<path fill="#6F9CA2" d="M126.445,169.196c11.965,0,21.663,11.889,21.663,26.556v7.855c9.504-3.67,18.035-9.297,25.08-16.41
			v-26.014c0-31.645-20.932-57.296-46.743-57.296"/>
		<path fill="#FFFFFF" d="M164.425,54.378l3.789-23.08c-6.428,5.77-13.931,13.699-18.975,23.08h-45.881
			c-5.038-9.381-12.541-17.31-18.976-23.08l13.127,79.96c0.017-0.024,0.031-0.052,0.048-0.075l7.547,46.021
			c-2.68,2.272-4.383,5.659-4.383,9.441c0,5.226,3.237,9.684,7.812,11.506c3.093,6.771,9.912,11.484,17.841,11.484
			c7.926,0,14.738-4.714,17.839-11.484c4.571-1.822,7.805-6.28,7.805-11.506c0-3.782-1.704-7.169-4.381-9.441l16.868-102.826
			H164.425z"/>
		<path fill="#9AC6CB" d="M114.731,133.344c0,0-13.347-44.751,32.569-62.051c-11.379-7.045-45.775,4.571-46.579,28.77
			C99.916,124.255,107.479,129.656,114.731,133.344z"/>
		<g>
			<defs>
				<path id="SVGID_5_" d="M106.285,109.398c0-21.109,17.115-38.219,38.224-38.219c0.944,0,1.873,0.046,2.792,0.113l1.929-16.807
					c-7.927-6.91-18.288-11.093-29.633-11.093c-24.909,0-45.106,20.194-45.106,45.108c0,23.269,17.615,42.417,40.241,44.844
					C109.455,126.791,106.285,118.467,106.285,109.398z"/>
			</defs>
			<clipPath id="SVGID_6_">
				<use xlink:href="#SVGID_5_"  overflow="visible"/>
			</clipPath>
			<path clip-path="url(#SVGID_6_)" fill="#F8513F" d="M106.285,109.398c0-21.109,17.115-38.219,38.224-38.219
				c0.944,0,1.873,0.046,2.792,0.113l1.929-16.807c-7.927-6.91-18.288-11.093-29.633-11.093c-24.909,0-45.106,20.194-45.106,45.108
				c0,23.269,17.615,42.417,40.241,44.844C109.455,126.791,106.285,118.467,106.285,109.398z"/>
			<path clip-path="url(#SVGID_6_)" fill="#FAD00A" d="M172.67,95.204c6.456,22.551-22.36,41.494-47.56,40.347
				c-25.198-1.146-44.763-21.072-43.696-44.494c1.071-23.431,20.811-41.496,46.013-40.347
				C152.622,51.857,166.376,73.218,172.67,95.204z"/>
			<path clip-path="url(#SVGID_6_)" fill="#8BE808" d="M172.098,97.191c3.707,21.471-18.494,39.451-41.304,39.451
				c-22.814,0-41.305-17.661-41.305-39.451c0-21.795,18.525-40.756,41.265-38.941C153.428,60.057,168.179,74.508,172.098,97.191z"/>
			<path clip-path="url(#SVGID_6_)" fill="#14A0FF" d="M175.189,103.318c0,20.546-17.159,37.198-38.326,37.198
				s-38.327-16.652-38.327-37.198c0-20.545,15.054-38.358,38.327-37.199C158.01,67.173,175.189,82.773,175.189,103.318z"/>
		</g>
		<path fill="#E0E1E2" d="M146.292,158.961c2.421,1.116,4.175,4.165,4.175,7.79c0,3.627-1.754,6.674-4.175,7.785
			c-2.423-1.111-4.177-4.158-4.177-7.785C142.115,163.126,143.869,160.077,146.292,158.961z"/>
		<path fill="#6F9CA2" d="M114.602,166.751c0,4.565-2.759,8.264-6.164,8.264c-3.409,0-6.165-3.698-6.165-8.264
			c0-4.562,2.756-8.265,6.165-8.265C111.843,158.486,114.602,162.189,114.602,166.751z"/>
		<path fill="#366469" d="M113.152,166.751c0-4.23-2.379-7.679-5.44-8.165c0.238-0.035,0.476-0.1,0.726-0.1
			c3.405,0,6.164,3.703,6.164,8.265c0,4.565-2.759,8.264-6.164,8.264c-0.25,0-0.487-0.059-0.726-0.099
			C110.773,174.431,113.152,170.984,113.152,166.751z"/>
		<path fill="#FFFFFF" d="M110.628,168.634c0,3.523-1.641,6.381-3.664,6.381c-2.027,0-3.667-2.857-3.667-6.381
			c0-3.526,1.64-6.382,3.667-6.382C108.987,162.252,110.628,165.107,110.628,168.634z"/>
		<path fill="#9AC6CB" d="M134.101,174.604c-0.172,8.348-3.902,12.741-6.47,14.98c7.383-0.465,13.649-5.024,16.582-11.434
			c4.571-1.822,7.805-6.28,7.805-11.506c0-3.782-1.704-7.169-4.381-9.441l11.939-72.789c-1.023-0.612-1.668-3.215-2.79-3.215
			c-12.525,0-22.686,20.019-22.686,46.755V174.604z"/>
		<ellipse fill="#6F9CA2" cx="144.302" cy="166.751" rx="6.165" ry="8.264"/>
		<path fill="#366469" d="M139.585,166.751c0-4.23,2.385-7.679,5.446-8.165c-0.243-0.035-0.477-0.1-0.729-0.1
			c-3.402,0-6.166,3.703-6.166,8.265c0,4.565,2.764,8.264,6.166,8.264c0.252,0,0.485-0.059,0.729-0.099
			C141.97,174.431,139.585,170.984,139.585,166.751z"/>
		<path fill="#DCEBEB" d="M149.42,168.634c0,3.523-1.645,6.381-3.667,6.381c-2.024,0-3.667-2.857-3.667-6.381
			c0-3.526,1.643-6.382,3.667-6.382C147.775,162.252,149.42,165.107,149.42,168.634z"/>
		<g>
			<path fill="#BCA3C0" d="M160.818,85.164c0,1.429-1.162,2.584-2.589,2.584c-1.433,0-2.593-1.155-2.593-2.584
				c0-1.433,1.16-2.595,2.593-2.595C159.656,82.569,160.818,83.731,160.818,85.164z"/>
		</g>
		<rect x="148.108" y="308.554" fill="#6F9CA2" width="25.08" height="19.101"/>
		<rect x="129.047" y="308.554" fill="#366469" width="19.062" height="19.101"/>
		<rect x="79.823" y="308.554" fill="#6F9CA2" width="25.073" height="19.101"/>
		<rect x="60.761" y="308.554" fill="#366469" width="19.063" height="19.101"/>
		<g>
			<g>
				<path fill="#366469" d="M162.002,87.48c0,3.521-2.854,6.385-6.382,6.385c-3.529,0-6.391-2.864-6.391-6.385
					c0-3.531,2.861-6.389,6.391-6.389C159.148,81.092,162.002,83.95,162.002,87.48z"/>
			</g>
			<g>
				<path fill="#B5CBCC" d="M160.091,86.352c0,1.427-1.16,2.586-2.594,2.586c-1.433,0-2.593-1.159-2.593-2.586
					c0-1.436,1.16-2.596,2.593-2.596C158.931,83.755,160.091,84.916,160.091,86.352z"/>
			</g>
			<g>
				<path fill="#B5CBCC" d="M156.786,90.607c0,0.649-0.521,1.171-1.166,1.171c-0.648,0-1.178-0.521-1.178-1.171
					c0-0.647,0.529-1.172,1.178-1.172C156.266,89.436,156.786,89.96,156.786,90.607z"/>
			</g>
			<g>
				<path fill="#B5CBCC" d="M154.442,88.323c0,0.343-0.271,0.614-0.621,0.614c-0.335,0-0.614-0.271-0.614-0.614
					c0-0.341,0.279-0.618,0.614-0.618C154.172,87.705,154.442,87.982,154.442,88.323z"/>
			</g>
		</g>
		<path fill="#9AC6CB" d="M133.423,88.938c0,5.218-4.224,9.443-9.443,9.443c-5.213,0-9.438-4.226-9.438-9.443
			c0-5.208,4.226-9.438,9.438-9.438C129.199,79.5,133.423,83.729,133.423,88.938z"/>
		<path fill="#6F9CA2" d="M116.547,88.241l7.433-75.883l7.438,75.883c0,4.104-3.329,7.434-7.438,7.434
			C119.876,95.675,116.547,92.345,116.547,88.241z"/>
		<path fill="#366469" d="M123.979,12.358l7.438,75.883c0,4.104-3.329,7.434-7.438,7.434"/>
	</g>
</g>
</svg>
